<svg xmlns="http://www.w3.org/2000/svg" width="70" height="70" viewBox="0 0 70 70">
  <g fill="none">
    <rect width="70" height="70" fill="#1479FB" rx="7"/>
    <path fill="#FFF" d="M57.9,12 C54,12 50.8,15.2 50.8,19.1 C50.8,19.7 50.9,20.2 51,20.7 L44.3,25.1 C42.2,22.7 39.2,21.1 35.7,21.1 C33.1,21.1 30.7,22 28.8,23.5 L17.8,15.9 C18.5,13 17,9.8 14.2,8.5 C10.9,7 7,8.4 5.5,11.6 C4,14.8 5.4,18.8 8.6,20.3 C10.3,21.1 12.2,21.1 13.9,20.4 L25.2,28.3 C24.7,29.5 24.4,30.9 24.4,32.3 C24.4,33.1 24.5,33.8 24.6,34.6 L17.7,37.1 C16.8,36.1 15.6,35.3 14.1,34.9 C10.2,33.8 6.1,36.1 5,40.1 C3.9,44 6.2,48.1 10.2,49.2 C14.1,50.3 18.2,48 19.3,44 C19.4,43.6 19.5,43.2 19.5,42.8 L27.4,40 C29.5,42.2 32.4,43.6 35.6,43.6 L36.5,43.6 L37.6,49.2 C35.5,50.9 34.3,53.6 34.6,56.4 C35,61 39.1,64.3 43.7,63.9 C48.3,63.5 51.6,59.4 51.2,54.8 C50.8,50.7 47.5,47.6 43.5,47.3 L42.3,41.4 C45.1,39.4 47,36 47,32.3 C47,31.7 46.9,31.1 46.9,30.6 L54.8,25.4 C55.8,25.9 56.9,26.2 58,26.2 C61.9,26.2 65.1,23 65.1,19.1 C65,15.2 61.8,12 57.9,12 Z M35.7,39.6 C31.7,39.6 28.5,36.4 28.5,32.4 C28.5,28.4 31.7,25.2 35.7,25.2 C39.7,25.2 42.9,28.4 42.9,32.4 C42.9,36.3 39.7,39.6 35.7,39.6 Z"/>
    <circle cx="35.8" cy="32.4" r="3.2" fill="#FFF"/>
  </g>
</svg>